<?xml version="1.0" standalone="no"?>
<!DOCTYPE svg PUBLIC "-//W3C//DTD SVG 20010904//EN"
 "http://www.w3.org/TR/2001/REC-SVG-20010904/DTD/svg10.dtd">
<svg version="1.0" xmlns="http://www.w3.org/2000/svg"
 width="70.000000pt" height="70.000000pt" viewBox="0 0 70.000000 70.000000"
 preserveAspectRatio="xMidYMid meet">
<metadata>
Created by potrace 1.14, written by Peter Selinger 2001-2017
</metadata>
<g transform="translate(0.000000,70.000000) scale(0.100000,-0.100000)"
fill="#000000" stroke="none">
<path d="M417 666 c-10 -11 -17 -23 -17 -26 1 -20 60 -60 60 -40 0 6 4 8 10 5
18 -11 23 45 6 64 -21 23 -39 22 -59 -3z"/>
<path d="M293 608 c-40 -20 -50 -82 -18 -116 31 -33 84 -39 114 -13 32 28 36
83 7 110 -27 25 -74 34 -103 19z"/>
<path d="M202 430 c-23 -11 -42 -22 -42 -26 0 -4 18 -29 41 -56 l40 -48 -55
-62 c-30 -34 -60 -72 -67 -84 -18 -34 -3 -71 41 -103 22 -15 36 -32 32 -36 -4
-4 2 -5 13 -3 26 4 43 26 95 125 38 73 45 81 56 65 7 -9 14 -23 14 -29 0 -7 5
-13 10 -13 6 0 10 -6 10 -14 0 -8 7 -22 16 -30 8 -9 13 -16 9 -16 -17 0 52
-83 73 -87 12 -3 72 53 72 67 0 5 4 10 9 12 9 3 14 22 12 48 0 8 -32 48 -70
89 l-69 73 33 32 c18 17 37 41 44 52 10 20 7 24 -32 40 -51 22 -85 21 -103 -3
-44 -63 -39 -60 -70 -27 -47 50 -64 55 -112 34z"/>
</g>
</svg>
