<?xml version="1.0" encoding="UTF-8"?>
<svg id="Objects" xmlns="http://www.w3.org/2000/svg" xmlns:xlink="http://www.w3.org/1999/xlink" viewBox="0 0 2200 1466">
  <defs>
    <style>
      .cls-1 {
        fill: url(#linear-gradient-2);
      }

      .cls-2 {
        fill: url(#linear-gradient);
      }
    </style>
    <linearGradient id="linear-gradient" x1="946.49" y1="323.69" x2="417.5" y2="897.87" gradientUnits="userSpaceOnUse">
      <stop offset="0" stop-color="#b4e06a"/>
      <stop offset="1" stop-color="#77df68"/>
    </linearGradient>
    <linearGradient id="linear-gradient-2" x1="918.6" y1="297.99" x2="389.61" y2="872.18" xlink:href="#linear-gradient"/>
  </defs>
  <path class="cls-2" d="M959.76,575.42c-26.45,7.18-42.08,34.44-34.9,60.89,8.5,31.33,12.81,63.87,12.81,96.69,0,98.37-38.31,190.85-107.86,260.41-69.56,69.56-162.04,107.86-260.41,107.86s-190.85-38.31-260.41-107.86c-69.56-69.56-107.86-162.04-107.86-260.41s38.31-190.85,107.86-260.41c69.56-69.56,162.04-107.86,260.41-107.86,49.22,0,96.98,9.53,141.96,28.34,25.28,10.57,54.35-1.35,64.93-26.64,10.57-25.29-1.35-54.35-26.64-64.93-57.17-23.9-117.81-36.02-180.24-36.02s-124.33,12.37-182,36.76c-55.68,23.55-105.67,57.25-148.59,100.17-42.92,42.92-76.62,92.91-100.17,148.59-24.39,57.67-36.76,118.9-36.76,182s12.37,124.33,36.76,182c23.55,55.68,57.25,105.67,100.17,148.59,42.92,42.92,92.91,76.62,148.59,100.17,57.67,24.39,118.9,36.76,182,36.76s124.33-12.37,182-36.76c55.68-23.55,105.67-57.25,148.59-100.17,42.92-42.92,76.62-92.91,100.17-148.59,24.39-57.67,36.76-118.9,36.76-182,0-41.6-5.47-82.88-16.27-122.68-7.17-26.45-34.42-42.07-60.89-34.9Z"/>
  <path class="cls-1" d="M414.43,675.4c-19.38-19.38-50.8-19.38-70.18,0-19.38,19.38-19.38,50.8,0,70.18l165.75,165.75c9.33,9.33,21.96,14.53,35.09,14.53.92,0,1.83-.03,2.75-.08,14.1-.78,27.19-7.53,36.01-18.56l354.28-443.1c17.11-21.41,13.64-52.63-7.77-69.75-21.41-17.12-52.63-13.64-69.75,7.77l-319.64,399.79-126.54-126.54Z"/>
</svg>