<?xml version="1.0" encoding="UTF-8"?>
<svg id="Objects" xmlns="http://www.w3.org/2000/svg" xmlns:xlink="http://www.w3.org/1999/xlink" viewBox="0 0 935.05 935.05">
  <defs>
    <style>
      .cls-1 {
        fill: url(#linear-gradient-2);
      }

      .cls-2 {
        fill: url(#linear-gradient);
      }
    </style>
    <linearGradient id="linear-gradient" x1="924" y1="29.92" x2="216.91" y2="707.77" gradientUnits="userSpaceOnUse">
      <stop offset="0" stop-color="#fd8047"/>
      <stop offset="1" stop-color="#df324e"/>
    </linearGradient>
    <linearGradient id="linear-gradient-2" x1="924" y1="29.92" x2="216.91" y2="707.77" xlink:href="#linear-gradient"/>
  </defs>
  <path class="cls-2" d="M898.28,285.53c-23.55-55.68-57.25-105.67-100.17-148.59-42.92-42.92-92.91-76.62-148.59-100.17C591.85,12.37,530.62,0,467.52,0s-124.33,12.37-182,36.76c-55.68,23.55-105.67,57.25-148.59,100.17-42.92,42.92-76.62,92.91-100.17,148.59C12.37,343.2,0,404.43,0,467.52s12.37,124.32,36.76,181.99c23.55,55.68,57.25,105.67,100.17,148.59,42.92,42.92,92.91,76.62,148.59,100.17,57.67,24.39,118.9,36.76,182,36.76s124.33-12.37,182-36.76c55.68-23.55,105.67-57.25,148.59-100.17,42.92-42.92,76.62-92.91,100.17-148.59,24.39-57.67,36.76-118.9,36.76-182s-12.37-124.33-36.76-182ZM727.93,727.93c-69.56,69.56-162.04,107.86-260.41,107.86s-190.86-38.31-260.41-107.86c-69.55-69.56-107.86-162.04-107.86-260.41s38.31-190.85,107.86-260.41c69.56-69.56,162.04-107.86,260.41-107.86s190.85,38.31,260.41,107.86c69.56,69.56,107.86,162.04,107.86,260.41s-38.31,190.85-107.86,260.41Z"/>
  <path class="cls-1" d="M687.05,253.47c-19.13-19.62-50.55-20.02-70.18-.89l-149.36,145.63-149.36-145.63c-19.62-19.13-51.04-18.74-70.17.89-19.13,19.62-18.74,51.04.89,70.18l147.56,143.88-147.56,143.88c-19.62,19.13-20.02,50.55-.89,70.18,9.72,9.97,22.62,14.98,35.53,14.98s24.99-4.69,34.64-14.09l149.36-145.63,149.36,145.63c9.65,9.41,22.15,14.09,34.64,14.09s25.81-5.01,35.54-14.98c19.13-19.62,18.74-51.04-.89-70.18l-147.56-143.88,147.56-143.88c19.62-19.13,20.02-50.55.89-70.18Z"/>
</svg>