<svg width="250" height="250" viewBox="0 0 250 250" fill="none" xmlns="http://www.w3.org/2000/svg">
<g clip-path="url(#clip0_201_54)">
<path d="M125.064 79.0903C140.017 79.0903 141.788 79.1472 147.693 79.4166C153.153 79.6658 156.118 80.5781 158.092 81.3448C160.705 82.3607 162.571 83.5744 164.531 85.5339C166.49 87.4934 167.704 89.3591 168.719 91.9728C169.486 93.9463 170.399 96.9115 170.648 102.371C170.917 108.276 170.974 110.047 170.974 125C170.974 139.953 170.917 141.724 170.648 147.629C170.399 153.089 169.486 156.054 168.719 158.027C167.704 160.641 166.49 162.507 164.531 164.466C162.571 166.426 160.705 167.64 158.092 168.655C156.118 169.422 153.153 170.334 147.693 170.584C141.789 170.853 140.018 170.91 125.064 170.91C110.111 170.91 108.34 170.853 102.436 170.584C96.9757 170.334 94.0105 169.422 92.0373 168.655C89.4233 167.64 87.5576 166.426 85.5981 164.466C83.6386 162.507 82.4249 160.641 81.4092 158.027C80.6423 156.054 79.73 153.089 79.4809 147.629C79.2114 141.724 79.1545 139.953 79.1545 125C79.1545 110.047 79.2114 108.276 79.4809 102.371C79.73 96.9115 80.6423 93.9463 81.4092 91.9728C82.4249 89.3591 83.6386 87.4934 85.5981 85.5339C87.5576 83.5744 89.4233 82.3607 92.0373 81.3448C94.0105 80.5781 96.9757 79.6658 102.435 79.4166C108.341 79.1472 110.112 79.0903 125.064 79.0903ZM125.064 69C109.856 69 107.949 69.0645 101.976 69.337C96.015 69.6091 91.9443 70.5556 88.3821 71.94C84.6996 73.3712 81.5766 75.286 78.4634 78.3992C75.3502 81.5124 73.4354 84.6354 72.0043 88.3179C70.6198 91.8801 69.6733 95.9507 69.4012 101.911C69.1287 107.884 69.0645 109.791 69.0645 125C69.0645 140.209 69.1287 142.116 69.4012 148.089C69.6733 154.049 70.6198 158.12 72.0043 161.682C73.4354 165.365 75.3502 168.488 78.4634 171.601C81.5766 174.714 84.6996 176.629 88.3821 178.06C91.9443 179.445 96.015 180.391 101.976 180.663C107.949 180.936 109.856 181 125.064 181C140.273 181 142.18 180.936 148.153 180.663C154.114 180.391 158.184 179.445 161.747 178.06C165.429 176.629 168.552 174.714 171.665 171.601C174.778 168.488 176.693 165.365 178.124 161.682C179.509 158.12 180.455 154.049 180.727 148.089C181 142.116 181.064 140.209 181.064 125C181.064 109.791 181 107.884 180.727 101.911C180.455 95.9507 179.509 91.8801 178.124 88.3179C176.693 84.6354 174.778 81.5124 171.665 78.3992C168.552 75.286 165.429 73.3712 161.747 71.94C158.184 70.5556 154.114 69.6091 148.153 69.337C142.18 69.0645 140.273 69 125.064 69ZM125.064 96.2433C109.182 96.2433 96.3075 109.118 96.3075 125C96.3075 140.882 109.182 153.757 125.064 153.757C140.946 153.757 153.821 140.882 153.821 125C153.821 109.118 140.946 96.2433 125.064 96.2433ZM125.064 143.667C114.755 143.667 106.398 135.309 106.398 125C106.398 114.691 114.755 106.333 125.064 106.333C135.374 106.333 143.731 114.691 143.731 125C143.731 135.309 135.374 143.667 125.064 143.667ZM161.677 95.1071C161.677 98.8185 158.669 101.827 154.957 101.827C151.246 101.827 148.237 98.8185 148.237 95.1071C148.237 91.3957 151.246 88.3872 154.957 88.3872C158.669 88.3872 161.677 91.3957 161.677 95.1071Z" fill="#F9F9F9"/>
</g>
<circle cx="125" cy="125" r="121" stroke="#F9F9F9" stroke-width="8"/>
<defs>
<clipPath id="clip0_201_54">
<rect width="112" height="112" fill="white" transform="translate(69.0645 69)"/>
</clipPath>
</defs>
</svg>
