<svg width="250" height="250" viewBox="0 0 250 250" fill="none" xmlns="http://www.w3.org/2000/svg">
<g clip-path="url(#clip0_201_81)">
<path d="M174 114.828C164.369 114.851 154.975 111.821 147.144 106.165V145.609C147.141 152.915 144.928 160.045 140.8 166.047C136.673 172.05 130.827 176.637 124.045 179.197C117.264 181.757 109.869 182.167 102.85 180.372C95.8311 178.577 89.5226 174.663 84.7681 169.153C80.0135 163.643 77.0396 156.8 76.2438 149.539C75.4481 142.277 76.8685 134.944 80.3151 128.519C83.7617 122.095 89.0703 116.885 95.531 113.586C101.992 110.287 109.297 109.057 116.469 110.061V129.9C113.187 128.858 109.662 128.889 106.399 129.989C103.136 131.089 100.3 133.201 98.2978 136.024C96.2952 138.846 95.2278 142.235 95.2481 145.707C95.2684 149.178 96.3752 152.554 98.4107 155.353C100.446 158.151 103.306 160.229 106.582 161.29C109.858 162.351 113.382 162.341 116.652 161.26C119.921 160.18 122.769 158.085 124.788 155.274C126.807 152.463 127.894 149.081 127.894 145.609V68.5H147.144C147.131 70.1401 147.267 71.778 147.551 73.393C148.22 76.9981 149.611 80.4277 151.638 83.4719C153.666 86.5161 156.288 89.111 159.344 91.0978C163.691 93.998 168.788 95.5439 174 95.5428V114.828Z" fill="#F9F9F9"/>
</g>
<circle cx="125" cy="125" r="121" stroke="#F9F9F9" stroke-width="8"/>
<defs>
<clipPath id="clip0_201_81">
<rect width="98" height="113" fill="white" transform="translate(76 68.5)"/>
</clipPath>
</defs>
</svg>
