<svg width="250" height="250" viewBox="0 0 250 250" fill="none" xmlns="http://www.w3.org/2000/svg">
<path d="M182.57 95.6804C181.224 90.636 176.853 86.6006 171.808 85.2554C160.374 82.2288 91.4348 81.8925 78.3195 85.2554C73.2751 86.6006 68.9034 90.636 67.5582 95.6804C64.5316 108.459 64.1953 141.08 67.5582 154.195C68.9034 159.239 73.2751 163.275 78.3195 164.62C90.4259 167.983 159.366 167.983 171.808 164.62C176.853 163.275 181.224 159.239 182.57 154.195C185.596 142.088 185.596 108.123 182.57 95.6804ZM112.957 142.761V107.114L144.232 124.938L112.957 142.761Z" fill="#F9F9F9"/>
<circle cx="125" cy="125" r="121" stroke="#F9F9F9" stroke-width="8"/>
</svg>
